<?xml version="1.0" encoding="utf-8"?>
<!-- Generator: Adobe Illustrator 26.0.0, SVG Export Plug-In . SVG Version: 6.00 Build 0)  -->
<svg version="1.1" id="Capa_1" xmlns="http://www.w3.org/2000/svg" xmlns:xlink="http://www.w3.org/1999/xlink" x="0px" y="0px"
	 viewBox="0 0 300 300" style="enable-background:new 0 0 300 300;" xml:space="preserve">
<style type="text/css">
	.st0{fill:#3a6;}
</style>
<path class="st0" d="M239.8,53.4l-7.7-5.7c-0.3,1.1-0.7,2.2-0.9,3.2c-0.8,2.8-0.7,5.7,0.1,8.4c0.2,0.6,0.4,1.1,0.7,1.7
	c0.8,1.4,1.4,2.9,1.8,4.4c0.6,1.7,1.2,3.4,1.8,5.2c0.4-0.5,0.9-0.9,1.2-1.4l9.4-11.2c1.3-1.3,2.3-2.9,3-4.5c0.8-2,0.5-3.6-1.2-4.8
	c-3-2.2-5.9-4.6-8.9-6.8c-1.9-1.5-3.9-2.9-5.9-4.3c0,0-0.1-0.1-0.1-0.1c0.9,0.1,2,0.2,3,0.4c0.2,0,0.4,0.1,0.6,0.2
	c3.3,2.5,6.6,4.9,9.9,7.4c0.9,0.6,1.7,1.3,2.5,2c2,1.4,2.7,3.9,1.8,6.2c-0.6,1.7-1.6,3.3-2.8,4.6c-3.4,4-6.7,8-10,12
	c-0.5,0.6-1.1,1.2-1.5,1.9c-0.2,0.2-0.2,0.5-0.2,0.8c1.2,4.1,2.4,8.2,3.6,12.2c0.9,3.1,1.9,6.2,2.8,9.3c0.7,2.4-0.3,5-2.5,6.2
	c-2.2,1-4.7,0.5-6.4-1.2c-0.8-0.9-1.4-2-1.7-3.2c-1.5-4.3-3-8.7-4.5-13l-5.2-15.1c-0.1-0.2-0.1-0.4-0.3-0.8
	c-0.5,2.1-0.9,3.9-1.4,5.8c-0.8,3.5-1.7,7-2.5,10.4c-1.1,4.7-2.2,9.4-3.4,14.1c-0.5,2.7-3,4.5-5.7,4c0,0-0.1,0-0.1,0
	c-0.7-0.1-1.5-0.2-2.2-0.5c-2.4-1-3.6-3.5-3-6c1-5,1.9-9.9,2.9-14.9c0.7-3.7,1.4-7.5,2-11.2s1.1-7.4,1.6-11.2
	c0.4-2.5,0.9-4.9,1.3-7.4c0.6-3.6,1.2-7.2,1.8-10.8c0.8-4.6,0.5-9.2,0.6-13.8s0.1-9.4,0.1-14.1c-0.1-1.5,0.9-2.9,2.4-3.2
	c1.8-0.6,3.6-1.1,5.4-1.6c6.1-1.8,12.2-3.7,18.3-5.5c1.2-0.4,2.5-0.7,3.8-0.8c2.6-0.1,4.8,1.9,4.9,4.4c0,0.8-0.1,1.6-0.5,2.3
	c-0.7,1.7-2.2,3-4,3.5c-2.9,0.9-5.7,1.9-8.5,2.9c-3.4,1.1-6.9,2.3-10.3,3.4c-0.5,0.2-0.4,0.5-0.4,0.8l0.6,5.1l0.8,7.1
	c0,0.2,0.1,0.4,0.2,0.6c1,0.9,1.1,2.4,2.1,3.4l-0.1,0.2c-1-0.8-2.1-1.5-3.1-2.4c-0.5-0.6-0.8-1.4-0.8-2.2c-0.3-3-0.7-6-1-9
	c-0.1-1-0.3-2-0.4-3.1c-0.2-0.9,0.4-1.9,1.4-2.1l14-4.7l5.4-1.8c1.8-0.7,3-2.5,2.8-4.4c-0.3-1.7-1.9-2.9-3.6-2.6c-0.1,0-0.1,0-0.2,0
	c-2.1,0.5-4.2,1.2-6.2,1.8l-9.2,2.8l-11,3.3c-0.8,0.1-1.4,0.9-1.3,1.8c-0.1,7.8-0.1,15.5-0.3,23.3c-0.1,2.8-0.5,5.6-1,8.4
	c-0.8,5.1-1.7,10.1-2.6,15.2c-0.5,3.2-0.9,6.5-1.4,9.7s-1.1,6.2-1.6,9.4c-1.1,5.9-2.2,11.7-3.3,17.6c-0.5,1.9,0.6,3.9,2.5,4.5
	c0.3,0.1,0.7,0.1,1,0.1c0.9,0.2,1.8,0.1,2.6-0.3c0.9-0.5,1.5-1.4,1.8-2.4c1.1-4.3,2.1-8.6,3.1-13c1-4.2,2-8.4,3-12.7
	c0.6-2.4,1.2-4.8,1.7-7.3c0.1-0.5,0.2-0.9,0.8-0.9s0.7,0.3,0.9,0.8c1.5,4.3,3,8.7,4.5,13c1.7,5,3.4,10.1,5.1,15.1
	c0.5,1.4,1,2.7,1.4,4.1c0.6,1.9,2.5,3.1,4.5,2.9c2-0.4,3.3-2.3,2.9-4.3c0-0.2-0.1-0.4-0.2-0.6c-0.9-2.9-1.7-5.8-2.6-8.8
	c-1-3.4-2-6.7-3-10.1c-1.3-4-2.6-8-3.9-12c-0.3-0.7-0.6-1.4-0.9-2c-1.2-2.3-1.8-4.8-1.7-7.4c0.2-2.8,0.8-5.5,1.9-8.1
	c0.3-0.8,0.8-0.9,1.5-0.4l8.7,6.5c0.7,0.5,0.8,0.9,0.2,1.6c-1.2,1.6-2.5,3.2-3.7,4.8c-0.2,0.4-0.7,0.5-1.1,0.3c0,0,0,0-0.1,0
	c-0.4-0.3-0.4-0.8-0.2-1.1c0,0,0.1-0.1,0.1-0.1C237.5,56.4,238.6,54.9,239.8,53.4z"/>
<path class="st0" d="M237.8,18.6c4.3,0,7.8,3.5,7.8,7.8c0,0.2,0,0.5,0,0.7c-0.2,4.2-3.1,7.8-7.1,8.9c-4,1.3-8.3-1-9.6-5
	c-0.2-0.5-0.3-1-0.3-1.5c-0.6-4.8,2.5-9.3,7.1-10.6C236.3,18.7,237,18.6,237.8,18.6z M236.2,34.8c0.9-0.1,1.7-0.3,2.5-0.6
	c2.9-1.1,4.9-3.8,5.2-6.9c0.5-4.8-3.7-8.5-8.7-6.6c-3,1.1-5.1,3.9-5.2,7.1c-0.4,3.4,2.1,6.5,5.5,6.9
	C235.7,34.7,235.9,34.8,236.2,34.8z"/>
<path class="st0" d="M261.1,79.6h16.5c0.3,0,0.6,0,0.8,0.2c0.2,0.2,0.3,0.5,0.2,0.8c-0.1,0.2-0.4,0.4-0.6,0.6c-0.2,0-0.4,0-0.6,0
	h-30.9c-0.8,0-1.6,0-2.4,0s-1-0.3-1-0.8s0.4-0.8,1-0.8L261.1,79.6L261.1,79.6z"/>
<path class="st0" d="M189.5,81.2h-10.6c-0.2,0-0.3,0-0.5,0c-0.4,0-0.7-0.4-0.7-0.8c0,0,0,0,0,0c0-0.4,0.3-0.8,0.7-0.8c0,0,0,0,0,0
	c0.1,0,0.2,0,0.3,0h21.6c0.8,0,1.3,0.6,0.9,1.2c-0.2,0.2-0.5,0.4-0.9,0.4c-2.1,0-4.1,0-6.2,0L189.5,81.2z"/>
<path class="st0" d="M253.6,76.4h-10.9c-0.5,0-0.9-0.1-1-0.6s0.2-1,1-1h21.4c0.2,0,0.4,0,0.6,0c0.4,0,0.7,0.4,0.7,0.7
	c0,0.4-0.2,0.8-0.6,0.8c-0.2,0-0.4,0-0.5,0L253.6,76.4z"/>
<path class="st0" d="M255.1,85.9H246c-0.8,0-1.1-0.3-1.1-0.8s0.4-0.8,1.1-0.8h18.4c0.7,0,1.1,0.3,1.1,0.8s-0.4,0.7-1,0.7L255.1,85.9
	z"/>
<path class="st0" d="M194.2,76.4h-7.6c-0.7,0-1.1-0.3-1-0.8s0.4-0.8,1-0.8h14.7h0.6c0.7,0,1.1,0.3,1.1,0.8s-0.4,0.8-1,0.8
	L194.2,76.4L194.2,76.4z"/>
<path class="st0" d="M215.5,55.6c0.4-2.6,0.7-5.1,1.1-7.7c0.4-2.1,0.9-4.2,1.3-6.3c0.1-0.6,0.5-0.9,1-0.7s0.6,0.5,0.5,1
	c-0.5,2.2-1,4.5-1.4,6.7s-0.6,4.7-1,7c-0.1,0.7-0.3,1-0.9,1S215.6,56.3,215.5,55.6z"/>
<path class="st0" d="M192.6,85.9h-6c-0.6,0-1-0.3-1-0.8s0.4-0.8,1-0.8h12.1c0.7,0,1.1,0.3,1,0.8s-0.4,0.8-1,0.8H192.6z"/>
<path class="st0" d="M263.2,29.3c0-0.3,0-0.5,0-0.8c0-0.4,0.3-0.8,0.8-0.8c0,0,0,0,0,0c0.4,0,0.8,0.2,0.8,0.7c0,0,0,0,0,0.1
	c0.1,0.6,0.1,1.2,0,1.7c-0.1,0.3-0.4,0.5-0.7,0.7c-0.4,0.1-0.7-0.2-0.8-0.6C263.2,29.9,263.2,29.6,263.2,29.3L263.2,29.3z"/>
<path class="st0" d="M253.9,51.9c-0.2-0.2-0.6-0.3-0.7-0.6c-0.1-0.3-0.1-0.6,0.1-0.8c0.3-0.5,0.7-0.9,1.1-1.3c0.3-0.3,0.7-0.3,1-0.1
	c0,0,0,0,0.1,0.1c0.3,0.3,0.4,0.7,0.1,1.1c0,0,0,0.1-0.1,0.1c-0.4,0.4-0.7,0.8-1.1,1.2C254.4,51.6,254.2,51.8,253.9,51.9z"/>
<path class="st0" d="M251.9,6.2c-0.2-0.1-0.4-0.2-0.6-0.3c-0.4-0.3-0.8-0.7-1.1-1c-0.3-0.2-0.4-0.7-0.2-1c0,0,0,0,0,0
	c0.2-0.4,0.7-0.5,1-0.2c0,0,0.1,0,0.1,0.1c0.5,0.3,0.9,0.6,1.2,1c0.2,0.3,0.3,0.6,0.2,0.9C252.5,5.8,252.1,6,251.9,6.2z"/>
<path class="st0" d="M255.2,9.4c0,0-0.2,0-0.2-0.1c-0.5-0.6-1.1-1.1-1.5-1.7c-0.1-0.1,0.1-0.6,0.3-0.8c0.2-0.2,0.5-0.2,0.8-0.1
	c0.5,0.4,1,0.9,1.4,1.4c0.2,0.3,0.2,0.8-0.2,1.1C255.5,9.4,255.3,9.4,255.2,9.4z"/>
<path class="st0" d="M258.1,13.2c-0.6,0-1.9-1.8-1.7-2.3c0.1-0.4,0.5-0.6,0.9-0.5c0.1,0,0.2,0.1,0.3,0.2c0.4,0.5,0.8,1,1.2,1.5
	c0.2,0.4,0.1,0.9-0.3,1.1C258.4,13.1,258.3,13.2,258.1,13.2z"/>
<path class="st0" d="M261.6,16.4c-0.2,0.3-0.4,0.6-0.6,0.7c-0.3,0.1-0.7,0-0.9-0.2c-0.4-0.5-0.7-1-0.9-1.6c-0.1-0.3,0-0.7,0.3-0.9
	c0.3-0.2,0.6-0.2,0.8,0C260.7,15,261.2,15.7,261.6,16.4z"/>
<path class="st0" d="M258.9,46c-0.1,0.2-0.1,0.4-0.2,0.6c-0.3,0.5-0.7,0.9-1,1.3c-0.2,0.3-0.7,0.3-1,0.1c0,0,0,0,0,0
	c-0.3-0.2-0.4-0.7-0.2-1c0,0,0,0,0,0c0.3-0.5,0.7-1,1.1-1.4c0.2-0.2,0.6-0.3,0.9-0.2C258.5,45.5,258.7,45.8,258.9,46z"/>
<path class="st0" d="M262.1,18.5c0.1,0.1,0.4,0.2,0.5,0.5c0.2,0.5,0.4,1,0.6,1.5c0.2,0.4,0,0.9-0.4,1c0,0-0.1,0-0.1,0
	c-0.4,0.1-0.8-0.1-1-0.5c0,0,0,0,0-0.1c-0.2-0.5-0.4-0.9-0.5-1.4S261.4,18.5,262.1,18.5z"/>
<path class="st0" d="M263.6,23c0.1,0.1,0.4,0.3,0.5,0.6c0.2,0.5,0.3,1.1,0.3,1.6c0.1,0.4-0.2,0.8-0.6,0.8c0,0,0,0,0,0
	c-0.4,0.1-0.8-0.1-0.9-0.5c0,0,0-0.1,0-0.1c-0.1-0.5-0.2-1.1-0.3-1.6S262.9,23,263.6,23z"/>
<path class="st0" d="M264.5,33.1c-0.1,0.7-0.3,1.3-0.5,2c-0.2,0.3-0.5,0.5-0.9,0.5c-0.4,0-0.7-0.3-0.6-0.7c0,0,0-0.1,0-0.1
	c0.1-0.6,0.2-1.2,0.4-1.7c0.2-0.3,0.5-0.5,0.8-0.5C264.1,32.5,264.3,32.9,264.5,33.1z"/>
<path class="st0" d="M263.4,37.7c-0.3,0.7-0.6,1.4-1,2.1c-0.2,0.2-0.6,0.2-0.8,0.1c-0.3-0.2-0.4-0.5-0.4-0.8
	c0.1-0.6,0.4-1.2,0.7-1.7c0.2-0.2,0.5-0.4,0.9-0.3C263,37.1,263.2,37.5,263.4,37.7z"/>
<path class="st0" d="M259.9,44.2c-0.7,0-1.1-0.5-0.8-1.1c0.2-0.5,0.5-1,0.9-1.5c0.1-0.3,0.5-0.5,0.8-0.3c0.1,0,0.1,0.1,0.2,0.1
	c0.3,0.2,0.4,0.6,0.4,0.9c-0.2,0.6-0.5,1.1-0.9,1.6C260.3,44.2,260,44.2,259.9,44.2z"/>
<path class="st0" d="M220.4,37.7c0,0.4-0.3,0.8-0.8,0.8c0,0,0,0,0,0c-0.4,0-0.8-0.3-0.8-0.7c0,0,0,0,0,0c0-0.4,0.3-0.8,0.7-0.8
	c0,0,0,0,0,0C220,36.9,220.3,37.3,220.4,37.7z"/>
<path class="st0" d="M236.1,60.7c0,0.4-0.4,0.7-0.8,0.7c-0.4,0-0.8-0.3-0.8-0.7c0,0,0-0.1,0-0.1c0-0.4,0.4-0.8,0.9-0.8
	C235.9,59.9,236.2,60.3,236.1,60.7z"/>
</svg>
