<?xml version="1.0" encoding="utf-8"?>
<!-- Generator: Adobe Illustrator 26.0.0, SVG Export Plug-In . SVG Version: 6.00 Build 0)  -->
<svg version="1.1" id="Capa_1" xmlns="http://www.w3.org/2000/svg" xmlns:xlink="http://www.w3.org/1999/xlink" x="0px" y="0px"
	 viewBox="0 0 300 300" style="enable-background:new 0 0 300 300;" xml:space="preserve">
<style type="text/css">
	.st0{fill:#C8516E;}
</style>
<path class="st0" d="M261.9,77.8c-2.4-1.4-4.8-2.8-7.2-4.2c-8.2-4.8-16.9-8.8-25.9-11.9c-1.5-0.5-2.9-0.8-4.4-1.3
	c-0.5-0.2-1.2-0.1-1.6,0.3c-3.3,2.8-6.6,1.4-9.8-0.1c-1-0.5-1.5-1.6-1.3-2.7c0.1-1-0.3-1.5-1.1-1.9c-6.3-3.5-13.1-5.8-20.2-6.9
	c-5.1-0.7-10.3-0.9-15.5-0.5h-0.9c-0.1-1.4-0.3-2.7,0.8-3.8c0.8-0.8,1.4-1.7,2.1-2.7l-1.3-0.2l2.9-2.9l-2.2-0.1l3.2-3.1l-0.2-0.4
	l-2.4-0.1c0.3-0.3,0.5-0.5,0.7-0.7c9-9,18-17.9,27-26.9c1.1-0.9,2.5-1.5,3.9-1.5c8.9-1.5,17.2,0.3,25.1,4.2c3.1,1.5,6,3.4,8.7,5.6
	c0.2,0.2,0.6,0.3,0.9,0.2c3.8-1.9,8-3,12.3-3.4c7.8-1,15.7-0.3,23.2,2c2.9,0.9,5.6,2.1,8.2,3.6l-1.7,2.2l5.3,2.1l-1.6,2l4.9,2
	l-1.2,1.6l6.6,2.7l-1.7,1.9c0.3,0.3,0.9,0.6,0.9,0.8c0,1,0.3,1.9-0.5,2.9c-11.8,13.5-23.6,27-35.4,40.6L261.9,77.8z M283.8,19.1
	c-0.3-0.2-0.5-0.3-0.8-0.4c-2.3-0.9-4.5-1.8-6.9-2.5c-6.8-1.9-14-2.3-21-1.4c-3.4,0.3-6.8,1.2-9.9,2.6c-0.8,0.3-1.6,0.9-2.2,1.5
	c-2.4,2.9-4.8,5.8-7.1,8.8c-5.7,7.3-10.7,15.1-15.1,23.3c-0.1,0.2-0.2,0.4-0.4,0.8c0.3-0.2,0.5-0.2,0.6-0.3c2.7-1.5,5.6-2.5,8.7-2.9
	c6.5-0.9,13.1,0,19.3,2.4c2.7,1,5.2,2.2,7.9,3.4C265.9,42.7,274.8,30.9,283.8,19.1z M241.2,17.8l-0.5-0.4c-4.1-3.4-8.9-6-13.9-7.6
	c-6.2-2.2-12.9-2.6-19.3-1.3c-0.6,0.1-1.1,0.4-1.5,0.8c-7.2,7.2-14.4,14.3-21.6,21.5c-0.9,0.9-1.8,1.8-2.8,2.8
	c1.9,0.2,3.6,0.4,5.2,0.7c7.4,1,14.6,3.4,21.1,7.1c4.2,2.5,7.9,5.5,10.2,9.9c0.1,0.1,0.2,0.2,0.2,0.2
	C224.6,39.2,232.5,28.2,241.2,17.8L241.2,17.8z M295.7,31.8c-1.4-0.5-2.6-1-3.9-1.5c-0.4-0.2-1-0.1-1.2,0.3c0,0,0,0,0,0
	c-1.5,1.9-3,3.7-4.5,5.5l-22.7,27.2c-1.2,1.4-2.4,2.9-3.6,4.4l-1.3-0.9c-0.5-0.3-0.9-0.6-1.4-0.9c-8-4.7-16.9-7.8-26.1-9.2
	c-2.2-0.4-4.5-0.5-6.8-0.1c6.6,0.1,12.8,2.2,18.8,4.6c6.1,2.4,11.9,5.4,17.4,9L295.7,31.8z M258.5,60.2l28.6-36.7
	c-0.9-0.3-1.7-0.6-2.5-1c-0.6-0.3-0.9-0.1-1.3,0.4c-8.4,11.2-16.9,22.3-25.3,33.5c-0.2,0.2-0.4,0.5-0.6,0.7l-0.8-0.5
	c-3.8-2.2-7.9-3.9-12.2-5.1c-5.8-1.7-12-1.8-17.9-0.2c-1.7,0.4-3.3,1.1-4.7,2.2c0.2,0,0.3,0,0.5-0.1c3.2-1,6.5-1.5,9.8-1.4
	c5.9,0.1,11.8,1.4,17.2,3.8C252.4,57.1,255.3,58.7,258.5,60.2z M290.5,27.6c-0.9-0.3-1.7-0.6-2.4-0.9c-0.4-0.2-0.8-0.1-1,0.3
	c0,0,0,0,0,0c-1.3,1.7-2.6,3.2-3.9,4.9c-7.9,10-15.7,20.1-23.6,30.2c-0.3,0.3-0.5,0.7-0.8,1l-2-1.2c-7.3-4.2-14.9-7.2-23.4-7.7
	c-1.9-0.1-3.9,0-5.8,0.1c11.3,1.2,22.1,4.9,31.8,10.7L290.5,27.6z M213.7,54.4c-0.2-0.3-0.4-0.5-0.6-0.7c-2.6-2.8-5.8-5-9.4-6.4
	c-6.8-2.8-14-4.5-21.4-5c-0.2,0-0.5,0-0.7,0.2c-0.7,0.7-1.3,1.4-2,2.3l0.6,0.1c4.6,0.5,9.2,0.9,13.8,1.6c5.3,0.8,10.3,2.5,15,5
	C210.6,52.3,212.1,53.3,213.7,54.4L213.7,54.4z M213,47.7l0.1-0.2c-1.6-1.2-3.1-2.5-4.8-3.6c-7.7-4.9-16.2-7.2-25.1-8.2
	c-1.2-0.1-1.6,0.6-2.2,1.3C192.6,38,203.6,40.5,213,47.7z M180.5,39.7l0.1,0.3c9.8,0.7,19.2,2.5,28,7.1c-0.4-0.3-0.8-0.6-1.3-0.9
	c-1.1-0.6-2.3-1.2-3.4-1.8c-7-3.1-14.4-4.9-22-5.3C181.4,39.2,180.9,39.6,180.5,39.7L180.5,39.7z"/>
<path class="st0" d="M227.1,29l-1,1.4c-4-2.8-8.3-5.1-12.8-6.8c-4.5-1.7-9.4-2.4-14.2-2.1c0.8-1,1.4-1.7,2.7-1.7
	c6.4,0.2,12.6,1.9,18.1,5C222.3,26.1,224.6,27.5,227.1,29z"/>
<path class="st0" d="M203,17.5c0.7-1.2,2-1.8,3.3-1.6c6.9,0.4,13.5,2.5,19.4,6.1c1.8,1,3.4,2.1,5.2,3.2l-0.9,1.3
	C221.9,21,213.3,16.9,203,17.5z"/>
<path class="st0" d="M234.6,20.9l-0.9,1.3c-8.1-5.5-16.9-8.9-26.9-8.3c0.8-1,1.4-1.6,2.6-1.6c8,0.1,15.3,2.6,22.1,6.7
	C232.5,19.5,233.5,20.2,234.6,20.9z"/>

</svg>
